# xmcd
#
# Track frame offsets: 
#        150
#        20550
#        31976
#        59006
#        82004
#        93676
#        104981
#        119182
#        131338
#        145090
#
# Disc length: 2122 seconds
#
# Revision: 0
# Processed by: cddbd v1.5.2PL0 Copyright (c) Steve Scherf et al.
# Submitted via: ExactAudioCopy v0.99pb5
#
DISCID=9908480a
DTITLE=Various Artist - Best of the Blues, Disk 2
DYEAR=2008
DGENRE=
TTITLE0=Every Day I Have the Blues - Buddy Guy and Junior Wells
TTITLE1=It's Been So Long - Memphis Slim
TTITLE2=Blues in B Flat - Mike Bloomfield
TTITLE3=Baby What You Want Me to Do - John Mayall
TTITLE4=Payin' the Cost to be the Boss - B.B. King
TTITLE5=Boom Boom - John Lee Hooker
TTITLE6=Blues is my Middle Name - Ray Charles
TTITLE7=Livin' in Misery - Charles Brown
TTITLE8=The Bourgeois Blues - Leadbelly
TTITLE9=Oh Lord, What are You Doing to Me - Big Maybelle
EXTD=
EXTT0=
EXTT1=
EXTT2=
EXTT3=
EXTT4=
EXTT5=
EXTT6=
EXTT7=
EXTT8=
EXTT9=
PLAYORDER=
